<svg xmlns="http://www.w3.org/2000/svg" width="20" height="20" viewBox="0 0 20 20" fill="none">
  <mask id="mask0_2109_10351" style="mask-type:alpha" maskUnits="userSpaceOnUse" x="0" y="0" width="20" height="20">
    <circle cx="10" cy="10" r="10" fill="#fff"/>
  </mask>
  <g mask="url(#mask0_2109_10351)">
    <path d="M10.0507 0.710938C9.98537 0.741503 8.65316 1.38676 9.71217 2.71721C9.72951 2.73898 9.74625 2.7619 9.76257 2.78581C9.97013 2.82445 10.1852 2.81106 10.3871 2.74387C10.7818 2.6126 11.4008 2.48115 11.9054 2.7082C12.4994 2.97543 12.4313 3.77468 12.3985 4.2271C12.3871 4.38439 12.4245 4.54216 12.5095 4.67554C12.5597 4.75427 12.5996 4.96625 12.6312 5.04872C12.6704 5.15123 12.784 5.25709 12.8013 5.36463C12.8925 5.32046 13.0228 5.27233 13.1342 5.28809C13.1479 4.81514 13.1915 4.17675 13.1915 4.17675C13.6588 1.88826 11.8089 0.752106 10.0507 0.710938Z" fill="#fff"/>
    <path d="M9.01152 0.931637C9.05304 0.962202 9.71694 1.38691 9.04356 2.71736C9.03253 2.73912 9.02188 2.76205 9.01151 2.78596C8.87953 2.82459 8.7428 2.8112 8.6144 2.74402C8.36341 2.61274 7.96982 2.48129 7.64895 2.70834C7.2713 2.97557 7.31457 3.77482 7.33542 4.22724C7.34268 4.38453 7.31891 4.5423 7.26483 4.67568C7.23292 4.75441 7.20759 4.96639 7.1875 5.04886C7.16252 5.15137 7.0903 5.25723 7.0793 5.36477C7.02132 5.32059 6.93847 5.27247 6.86761 5.28823C6.85893 4.81528 6.83117 4.17689 6.83117 4.17689C6.53408 1.8884 7.89356 0.972806 9.01152 0.931637Z" fill="#fff"/>
    <path d="M9.40369 0.745691C7.63009 0.987337 7.46151 1.99294 7.46073 2.36187C7.46056 2.43923 7.41772 2.51096 7.34813 2.54479C6.42555 2.99361 6.92296 5.28511 6.92296 5.28511C7.0156 5.29129 7.11258 5.32881 7.18492 5.36384C7.20265 5.2536 7.23154 5.14512 7.27236 5.0402C7.30348 4.96026 7.42802 4.75103 7.47666 4.67475C7.56101 4.5424 7.59948 4.38622 7.58797 4.23013C7.55479 3.77887 7.48512 2.97537 8.08075 2.70736C8.58534 2.48031 9.20437 2.6118 9.5991 2.74304C9.71295 2.7809 9.83104 2.80095 9.94953 2.8052C9.92918 2.77408 9.90832 2.74402 9.88629 2.71638C8.87038 1.44002 10.0553 0.794158 10.211 0.7168C9.93849 0.700316 9.66641 0.709889 9.40369 0.745691Z" fill="#fff"/>
    <path d="M11.5896 9.33496C11.4642 9.46319 11.3371 9.57523 11.214 9.67084C10.8655 9.94146 10.4355 10.0884 9.99253 10.0884C9.92916 10.0884 9.86614 10.0851 9.80351 10.0791C9.7863 10.4534 9.71405 11.0409 9.44591 11.4347C9.44342 11.4384 9.44025 11.442 9.4375 11.4456H10.6487C10.6638 11.4073 10.6858 11.3715 10.7153 11.3407L11.851 10.1533C11.8696 10.1339 11.8904 10.1182 11.9124 10.1054C11.7137 9.85131 11.6264 9.529 11.5896 9.33496Z" fill="#fff"/>
    <path d="M9.53208 11.4348C9.79871 11.0432 9.87165 10.46 9.88937 10.0855C9.48327 10.0644 9.09262 9.92037 8.77134 9.67087C8.65109 9.5775 8.52707 9.46824 8.40447 9.34375C8.36691 9.5377 8.2798 9.8522 8.08594 10.102C8.11019 10.1153 8.13299 10.1322 8.15325 10.1534L9.28897 11.3408C9.31847 11.3716 9.34049 11.4075 9.3556 11.4457H9.52362C9.52641 11.4421 9.52959 11.4385 9.53208 11.4348Z" fill="#fff"/>
    <path d="M10.6493 11.6855H9.35598C9.27201 11.9147 9.09094 12.2842 8.74219 12.5418C9.05076 13.1064 9.36191 13.5937 9.61506 13.9642C9.75994 14.1762 9.87765 14.4038 9.96733 14.6414C10.0571 14.4038 10.1747 14.1762 10.3196 13.9642C10.5784 13.5854 10.8979 13.0842 11.2133 12.5034C10.8969 12.2486 10.7291 11.9036 10.6493 11.6855Z" fill="#fff"/>
    <path d="M10.6287 11.6749C10.5973 11.5879 10.6047 11.4934 10.6464 11.4141H9.98885H9.36162C9.4033 11.4934 9.41073 11.5879 9.37935 11.6749C9.342 11.7784 9.28396 11.9125 9.19922 12.0525L9.58274 12.5689H10.4065L10.8003 12.0385C10.7201 11.9036 10.6648 11.7749 10.6287 11.6749Z" fill="#fff"/>
    <path d="M10.4056 12.5693C10.2507 12.5693 10.1132 12.502 9.97524 12.502C9.84898 12.502 9.72243 12.5693 9.58184 12.5693L9.28906 13.4676C9.40454 13.6498 9.51465 13.816 9.61554 13.9637C9.76042 14.1757 9.87813 14.4033 9.96781 14.6409C10.0575 14.4033 10.1752 14.1757 10.32 13.9637C10.4342 13.7966 10.5603 13.6055 10.6925 13.3945L10.4056 12.5693Z" fill="#fff"/>
    <path d="M11.1865 12.5488C11.5402 11.9026 11.8909 11.155 12.1472 10.3652C12.1642 10.3128 12.2063 10.2776 12.2545 10.2659L12.1777 10.1708C12.0734 10.0415 11.8792 10.0334 11.7644 10.1534L10.6287 11.3407C10.5436 11.4297 10.5166 11.5589 10.5584 11.6747C10.6416 11.9053 10.8258 12.2873 11.1865 12.5488Z" fill="#fff"/>
    <path d="M7.78499 10.3652C8.04604 11.1696 8.40497 11.9301 8.76531 12.5844C9.16004 12.3231 9.35743 11.916 9.44453 11.6747C9.4863 11.5589 9.4593 11.4297 9.37421 11.3408L8.23849 10.1534C8.1237 10.0334 7.92953 10.0415 7.82521 10.1708L7.72656 10.2876C7.75292 10.3054 7.77413 10.3318 7.78499 10.3652Z" fill="#fff"/>
    <path d="M13.3001 5.22017C13.1619 5.09357 12.8867 5.15775 12.7678 5.23528C12.7938 5.3976 12.7953 5.56364 12.7728 5.72763L12.6324 6.7502C12.6324 6.83262 12.6298 6.9135 12.625 6.99296C12.9674 7.0962 13.1374 6.78887 13.1661 6.57797C13.1784 6.48717 13.1986 6.39767 13.2265 6.31035C13.3177 6.02586 13.6461 5.53733 13.3001 5.22017Z" fill="#fff"/>
    <path d="M6.68626 5.22017C6.8244 5.09357 7.09958 5.15775 7.21853 5.23528C7.19248 5.3976 7.19097 5.56364 7.21351 5.72763L7.35389 6.7502C7.35389 6.83262 7.35651 6.9135 7.36127 6.99296C7.01891 7.0962 6.84887 6.78887 6.8202 6.57797C6.80788 6.48717 6.7877 6.39767 6.75975 6.31035C6.6687 6.02586 6.34017 5.53733 6.68626 5.22017Z" fill="#fff"/>
    <path d="M9.79218 15.4209C9.06527 14.6035 8.1529 14.2569 7.78492 14.1437C7.68708 14.1136 7.63213 14.0126 7.65973 13.9137L7.78809 13.4547C7.81265 13.3669 7.79513 13.2748 7.74001 13.2022C7.68489 13.1296 7.60097 13.0879 7.50978 13.0879H7.37902C6.96231 13.147 5.66797 13.4508 5.66797 14.9404V20.3367C6.94059 20.9121 8.34814 21.2417 9.83026 21.2647V15.1328C9.81326 15.2281 9.80051 15.3242 9.79218 15.4209Z" fill="#fff"/>
    <path d="M5.73235 14.9405C5.73235 13.2154 7.50973 13.1385 7.50973 13.1385C7.51428 13.1211 7.51948 13.1053 7.52437 13.0888C7.51948 13.0885 7.51467 13.0879 7.50973 13.0879H6.72757C6.67399 13.0879 6.62463 13.0661 6.58857 13.0265C6.55251 12.9869 6.53542 12.9357 6.54044 12.8823L6.69675 11.2254C6.70533 11.1344 6.73409 11.0481 6.77956 10.9717C6.2378 11.2172 5.41172 11.5641 4.5941 11.8012C4.07964 11.9503 3.68044 12.3578 3.54363 12.8757C3.26099 13.9455 2.8268 15.9051 2.67578 18.2999C3.55917 19.1566 4.59255 19.859 5.7324 20.3652C5.73235 19.1943 5.73235 16.2985 5.73235 14.9405Z" fill="#fff"/>
    <path d="M7.27836 17.1572C7.98285 16.8652 8.31723 16.0574 8.02522 15.3529C7.7332 14.6484 6.92538 14.314 6.2209 14.606C5.51641 14.898 5.18203 15.7059 5.47405 16.4104C5.76606 17.1148 6.57388 17.4492 7.27836 17.1572Z" fill="#fff"/>
    <path d="M9.61852 13.911C9.36245 13.5363 9.04619 13.0401 8.73418 12.4652L8.73367 12.4711C8.5802 12.4085 8.24982 12.3075 7.94687 12.4399C7.71566 12.541 7.55137 12.7555 7.45817 13.0778C7.39485 13.0841 7.27285 13.1001 7.12109 13.1382H7.50831C7.6662 13.1382 7.78052 13.2888 7.73798 13.4409L7.60962 13.8998C7.57485 14.0242 7.64517 14.1538 7.76859 14.1918C8.18805 14.3208 9.11462 14.6865 9.83282 15.547C9.84711 15.2478 9.90356 14.9535 9.99977 14.6724C9.90794 14.4042 9.78032 14.1478 9.61852 13.911Z" fill="#fff"/>
    <path d="M8.7909 12.568V12.5678C8.43223 11.9184 8.07412 11.1618 7.81427 10.3612C7.78375 10.2671 7.6714 10.2288 7.58988 10.2849L6.92818 10.74C6.76745 10.8506 6.66399 11.0267 6.64566 11.2209L6.48936 12.8778C6.47614 13.0177 6.58621 13.1386 6.7268 13.1386H7.509C7.7971 12.037 8.7909 12.568 8.7909 12.568Z" fill="#fff"/>
    <path d="M14.4969 15.8553C14.4969 15.6974 14.6015 15.6029 14.6993 15.567C14.7951 15.532 14.9328 15.5364 15.0324 15.6542C15.3446 16.0233 15.5028 16.4725 15.5028 16.9893V19.7105C16.1598 19.3058 16.7693 18.8313 17.3201 18.2965C17.1689 15.9035 16.735 13.9455 16.4525 12.8762C16.3157 12.3584 15.9165 11.9509 15.402 11.8018C14.5381 11.5513 13.6648 11.1782 13.1274 10.9316C13.1883 11.0175 13.227 11.1184 13.2371 11.226L13.3934 12.8829C13.3985 12.9363 13.3814 12.9875 13.3453 13.0271C13.3093 13.0667 13.2599 13.0886 13.2063 13.0886H12.4241C12.3329 13.0886 12.249 13.1302 12.1939 13.2029C12.1388 13.2755 12.1213 13.3675 12.1458 13.4554L12.2742 13.9143C12.3019 14.0132 12.2469 14.1143 12.149 14.1444C11.6862 14.2867 10.5608 14.7314 9.81225 15.8462H9.76172V21.2645C9.83942 21.2662 9.91721 21.2675 9.99534 21.2675C11.6063 21.2675 13.1323 20.9049 14.4969 20.2574V15.8553H14.4969Z" fill="#fff"/>
    <path d="M10.314 13.9123C10.8488 13.1296 11.6464 11.8181 12.1189 10.3622C12.1495 10.2681 12.2618 10.2298 12.3433 10.2859L13.005 10.741C13.1658 10.8515 13.2692 11.0276 13.2875 11.2219L13.4438 12.8787C13.457 13.0187 13.3469 13.1396 13.2064 13.1396H12.4242C12.2663 13.1396 12.152 13.2902 12.1945 13.4423L12.3228 13.9013C12.3576 14.0256 12.2873 14.1552 12.1639 14.1932C11.6747 14.3437 10.4954 14.8154 9.76172 16.0194V15.6998C9.76172 15.0618 9.95404 14.4389 10.314 13.9123Z" fill="#fff"/>
    <path d="M12.7189 4.92006C12.6873 4.83763 12.6474 4.75409 12.5973 4.67536C12.5123 4.54198 12.4748 4.38422 12.4862 4.22693C12.519 3.7745 12.5014 2.88961 11.9075 2.62238C11.4029 2.39533 10.784 2.52678 10.3893 2.65805C10.1918 2.72373 9.98166 2.73824 9.77834 2.70274C9.40727 3.07923 9.39984 3.78983 9.42852 4.18035C9.44028 4.34022 9.40092 4.50013 9.3145 4.63565C9.2647 4.71378 9.22486 4.79646 9.19301 4.87829C9.08968 5.14376 9.05955 5.43172 9.09827 5.71364L9.24208 6.76101C9.24208 8.26678 10.0459 9.29025 10.7296 9.82119C10.7845 9.86382 10.8421 9.9022 10.9007 9.93864C11.0111 9.88232 11.1166 9.81591 11.2155 9.73915C11.8831 9.2207 12.6681 8.22128 12.6681 6.75088L12.8085 5.72832C12.8459 5.45572 12.8175 5.17728 12.7189 4.92006Z" fill="#fff"/>
    <path d="M10.7357 9.73915C10.068 9.2207 9.28311 8.22128 9.28311 6.75088L9.14269 5.7281C9.10487 5.4528 9.13432 5.17162 9.23524 4.91237C9.26637 4.83244 9.30526 4.75169 9.3539 4.6754C9.43825 4.54305 9.47667 4.38688 9.46521 4.23079C9.43529 3.82331 9.44555 3.05884 9.88639 2.71704C9.78915 2.70862 9.69269 2.68918 9.59911 2.65805C9.20438 2.52678 8.58543 2.39533 8.08084 2.62238C7.48521 2.89038 7.46924 3.77957 7.50238 4.23079C7.51384 4.38688 7.47542 4.54301 7.39107 4.6754C7.34247 4.75169 7.30358 4.83244 7.27245 4.91237C7.17153 5.17162 7.14212 5.4528 7.1799 5.7281L7.32032 6.75088C7.32032 8.22128 8.10523 9.2207 8.7729 9.73915C9.1214 10.0098 9.55146 10.1568 9.99439 10.1568C10.3404 10.1568 10.6783 10.0667 10.9758 9.89846C10.8924 9.85137 10.812 9.79844 10.7357 9.73915Z" fill="#fff"/>
    <path d="M6.73881 16.6628C6.59672 16.6628 6.48047 16.5466 6.48047 16.4045V15.3599C6.48047 15.2178 6.59672 15.1016 6.73881 15.1016C6.88091 15.1016 6.99716 15.2178 6.99716 15.3599V16.4045C6.9972 16.5466 6.88091 16.6628 6.73881 16.6628Z" fill="#fff"/>
    <path d="M7.52226 15.8824C7.52226 16.0245 7.40601 16.1407 7.26391 16.1407H6.21928C6.07719 16.1407 5.96094 16.0245 5.96094 15.8824C5.96094 15.7403 6.07719 15.624 6.21928 15.624H7.26391C7.40601 15.624 7.52226 15.7403 7.52226 15.8824Z" fill="#fff"/>
    <path d="M15.5682 16.9894C15.5682 16.3596 15.3366 15.913 15.0827 15.6127C14.8617 15.3515 14.4336 15.5132 14.4336 15.8553V20.2876C14.8255 20.1048 15.2044 19.8991 15.5683 19.6714C15.5682 18.9027 15.5682 17.806 15.5682 16.9894Z" fill="#fff"/>
  </g>
</svg>